:version 1.10
:name ASF
:units
  mass 1
  length 1
  angle deg
:documentation
  ASF file generated by Kaydara
:root
  axis xyz
  order  tx ty tz rx ry rz
  position 0 0 0
  orientation 0 0 0
:bonedata
  begin
    id 1
    name RightUpLegDummy
    direction -0.718183 -0.695806 0.00816078
    length 4.904
    axis 0 0 0 xyz
  end
  begin
    id 2
    name RightUpLeg
    direction -0.0736652 -0.994202 0.0783343
    length 17.4976
    axis -2.72909 -3.00389 -4.00133 xyz
    dof rx ry rz
  end
  begin
    id 3
    name RightLeg
    direction -0.0389037 -0.994596 -0.0962598
    length 16.5821
    axis 3.95836 -18.5909 -4.46993 xyz
    dof rx ry rz
  end
  begin
    id 4
    name RightFoot
    direction -0.311643 -0.412678 0.855906
    length 3.77069
    axis -1.99483 -18.8351 -3.27644 xyz
    dof rx ry rz
  end
  begin
    id 5
    name RightToes
    direction -0.317852 0.0389852 0.947339
    length 3.85082
    axis -2.00228 -18.1713 -3.25211 xyz
    dof rx ry rz
  end
  begin
    id 6
    name SpineDummy
    direction 8.3039e-015 1 4.44677e-016
    length 4.6813
    axis 0 0 0 xyz
  end
  begin
    id 7
    name Spine
    direction -0.000262373 0.999988 0.00493267
    length 10.1015
    axis -0.00246081 0.00062579 0.0150362 xyz
    dof rx ry rz
  end
  begin
    id 8
    name Spine1
    direction 0 0 0
    length 0
    axis -0.00349562 0.000650293 0.0196666 xyz
    dof rx ry rz
  end
  begin
    id 9
    name HEadDummy
    direction -0.000343232 0.999999 0.00123745
    length 3.43865
    axis -0.00349562 0.000650293 0.0196666 xyz
  end
  begin
    id 10
    name HEad
    direction -0.0461221 0.980933 0.188796
    length 5.12695
    axis -0.00351404 -7.04812 0.0199272 xyz
    dof rx ry rz
  end
  begin
    id 11
    name LeftShoulder1Dummy
    direction 0.998904 -0.0399089 -0.0244534
    length 3.5433
    axis -0.00349562 0.000650293 0.0196666 xyz
  end
  begin
    id 12
    name LeftShoulder1
    direction 0.99951 1.64443e-005 0.0312999
    length 4.05031
    axis -0.00349562 0.000650293 0.0196666 xyz
    dof rx ry rz
  end
  begin
    id 13
    name LeftArm
    direction 0.984791 0.0515299 0.165927
    length 12.9126
    axis -64.823 -10.7743 5.20463 xyz
    dof rx ry rz
  end
  begin
    id 14
    name LeftForeArm
    direction 0.984968 0.0534808 0.16425
    length 10.8596
    axis -30.0462 -7.70601 1.87451 xyz
    dof rx ry rz
  end
  begin
    id 15
    name LeftHand
    direction 0.975871 0.0289682 0.216418
    length 6.62295
    axis -20.1348 -6.98077 1.86072 xyz
    dof rx ry rz
  end
  begin
    id 16
    name RightShoulderDummy
    direction -0.998877 -0.0405946 -0.0244307
    length 3.5433
    axis -0.00349562 0.000650293 0.0196666 xyz
  end
  begin
    id 17
    name RightShoulder
    direction -0.998933 -0.0249743 -0.0388558
    length 4.05031
    axis -0.0205316 -4.02113 1.41395 xyz
    dof rx ry rz
  end
  begin
    id 18
    name RightArm
    direction -0.997559 0.068664 0.0127103
    length 12.9638
    axis -67.3882 1.84188 -6.15987 xyz
    dof rx ry rz
  end
  begin
    id 19
    name RightForeArm
    direction -0.991508 0.0912848 0.0926241
    length 10.8312
    axis -22.1975 3.41087 -4.28711 xyz
    dof rx ry rz
  end
  begin
    id 20
    name RightHand
    direction -0.989262 0.0600788 0.133232
    length 6.57864
    axis -12.2911 2.17515 -4.39675 xyz
    dof rx ry rz
  end
  begin
    id 21
    name LeftUpLegDummy
    direction 0.718183 -0.695806 0.00816078
    length 4.904
    axis 0 0 0 xyz
  end
  begin
    id 22
    name LeftUpLeg
    direction 0.0831398 -0.99469 0.0606531
    length 17.4976
    axis -1.71016 2.29552 4.63832 xyz
    dof rx ry rz
  end
  begin
    id 23
    name LeftLeg
    direction 0.0498442 -0.991778 -0.117862
    length 16.5821
    axis 5.13757 15.5727 5.13348 xyz
    dof rx ry rz
  end
  begin
    id 24
    name LeftFoot
    direction 0.269026 -0.433896 0.85986
    length 3.77069
    axis -0.576502 15.6961 4.10267 xyz
    dof rx ry rz
  end
  begin
    id 25
    name LeftToes
    direction 0.277311 0.0251143 0.960452
    length 3.85048
    axis -0.576502 15.6961 4.10267 xyz
    dof rx ry rz
  end
:hierarchy
  begin
    root RightUpLegDummy SpineDummy LeftUpLegDummy
    RightUpLegDummy RightUpLeg
    RightUpLeg RightLeg
    RightLeg RightFoot
    RightFoot RightToes
    SpineDummy Spine
    Spine Spine1
    Spine1 HEadDummy LeftShoulder1Dummy RightShoulderDummy
    HEadDummy HEad
    LeftShoulder1Dummy LeftShoulder1
    LeftShoulder1 LeftArm
    LeftArm LeftForeArm
    LeftForeArm LeftHand
    RightShoulderDummy RightShoulder
    RightShoulder RightArm
    RightArm RightForeArm
    RightForeArm RightHand
    LeftUpLegDummy LeftUpLeg
    LeftUpLeg LeftLeg
    LeftLeg LeftFoot
    LeftFoot LeftToes
  end

:SAMPLES-PER-SECOND 30
:FULLY-SPECIFIED
:DEGREES
1
root  10.1676 38.6597 -63.6051 -2.70487 -11.3445 0.627156
RightUpLeg  -18.3543 -15.2053 1.10741
RightLeg  28.7163 7.19334 -6.17178
RightFoot  -10.5354 0.0157737 0.597298
RightToes  -5.82073e-011 -3.18055e-015 -2.98177e-016
Spine  10.4264 0.765374 -0.410793
Spine1  9.48067 1.13762 -1.69631
HEad  -7.63191 -0.203525 1.37712
LeftShoulder1  -3.88251e-019 9.70628e-020 -3.87848e-018
LeftArm  -5.77901 44.3884 -70.6588
LeftForeArm  -16.4608 -37.1606 7.73574
LeftHand  -0.683197 -5.99468 7.4527
RightShoulder  7.73758 10.5448 36.5534
RightArm  30.9464 -39.1052 22.0131
RightForeArm  -19.1041 39.0079 -21.0354
RightHand  -2.06473 4.39109 -23.9875
LeftUpLeg  -3.54727 11.9197 -5.73111
LeftLeg  21.6577 2.22212 7.93659
LeftFoot  -18.7282 -0.125876 -1.52951
LeftToes  1.2018e-011 -3.94675e-011 -1.33631e-011
2
root  10.1776 38.7212 -63.8362 -2.15473 -8.73334 0.627095
RightUpLeg  -17.9164 -12.1192 0.455515
RightLeg  27.6805 6.58802 -6.31635
RightFoot  -10.4906 0.010155 0.78784
RightToes  -5.82073e-011 -3.18055e-015 -2.98177e-016
Spine  10.4215 0.741196 -1.39717
Spine1  8.59039 0.709547 -0.347871
HEad  -7.68438 -0.923466 1.83043
LeftShoulder1  -3.88251e-019 9.70628e-020 -3.87848e-018
LeftArm  -4.13788 42.3264 -70.9357
LeftForeArm  -13.2247 -43.3685 10.063
LeftHand  -0.723591 -7.4732 7.00011
RightShoulder  7.60432 10.4762 36.0379
RightArm  31.8604 -36.4497 23.7965
RightForeArm  -21.2778 43.3371 -24.3514
RightHand  -2.15666 4.70193 -24.2991
LeftUpLeg  -4.70889 10.514 -5.96578
LeftLeg  21.5493 1.26929 7.49091
LeftFoot  -17.9597 -0.100675 -1.22503
LeftToes  1.2018e-011 -3.94675e-011 -1.33631e-011
3
root  10.1481 38.7523 -64.0275 -1.46544 -5.97415 0.378885
RightUpLeg  -17.4491 -11.1976 0.545406
RightLeg  26.6553 7.3571 -5.66517
RightFoot  -9.74242 -0.0206185 1.56784
RightToes  -5.82073e-011 -3.18055e-015 -2.98177e-016
Spine  10.7808 0.35861 -1.41738
Spine1  7.24682 0.252235 -0.0513343
HEad  -7.828 -1.78992 2.69442
LeftShoulder1  -3.88251e-019 9.70628e-020 -3.87848e-018
LeftArm  -0.598165 39.4059 -70.1927
LeftForeArm  -12.4473 -48.8554 12.4797
LeftHand  -0.844795 -7.45359 8.1527
RightShoulder  7.44335 10.3956 35.4027
RightArm  30.9488 -34.5755 26.1809
RightForeArm  -24.2291 47.5491 -28.1467
RightHand  -2.05859 4.19998 -24.3799
LeftUpLeg  -6.10479 9.39241 -5.80976
LeftLeg  21.6934 -0.23047 6.87798
LeftFoot  -17.2691 -0.0683005 -0.593743
LeftToes  1.2018e-011 -3.94675e-011 -1.33631e-011
4
root  10.1265 38.7275 -64.1986 -0.842585 -3.59561 0.0482055
RightUpLeg  -16.9382 -11.3435 1.10029
RightLeg  25.7677 9.65152 -4.2385
RightFoot  -9.49584 -0.0304807 1.73061
RightToes  -5.82073e-011 -3.18055e-015 -2.98177e-016
Spine  11.499 0.0894419 -0.4399
Spine1  5.96558 0.209786 -0.713927
HEad  -8.27136 -3.03543 3.38475
LeftShoulder1  -3.88251e-019 9.70628e-020 -3.87848e-018
LeftArm  2.86382 35.6497 -69.8368
LeftForeArm  -12.7027 -52.9244 14.6348
LeftHand  -1.04231 -7.69185 9.81331
RightShoulder  7.24764 10.317 34.5762
RightArm  28.5015 -32.9802 28.7794
RightForeArm  -27.3301 51.195 -32.1201
RightHand  -1.99383 4.20976 -23.6367
LeftUpLeg  -7.77917 7.68697 -5.65171
LeftLeg  22.5703 -1.01811 6.76721
LeftFoot  -16.8252 -0.0362492 0.280065
LeftToes  1.2018e-011 -3.94675e-011 -1.33631e-011
5
root  10.1311 38.6662 -64.3859 -0.27592 -1.95712 -0.131951
RightUpLeg  -16.7593 -11.3258 1.62594
RightLeg  25.0927 11.1604 -3.3403
RightFoot  -9.94682 0.0066202 0.718004
RightToes  -5.82073e-011 -3.18055e-015 -2.98177e-016
Spine  12.61 0.186519 0.580034
Spine1  5.00291 0.470167 -0.896246
HEad  -9.35532 -4.22285 3.62242
LeftShoulder1  -3.88251e-019 9.70628e-020 -3.87848e-018
LeftArm  3.83815 32.0259 -70.7104
LeftForeArm  -11.5757 -55.0282 16.0293
LeftHand  -1.44927 -9.28688 12.0343
RightShoulder  6.96043 10.2076 33.3269
RightArm  25.4893 -30.8343 31.7398
RightForeArm  -29.453 53.3654 -34.9068
RightHand  -2.1999 5.2919 -23.4538
LeftUpLeg  -9.52084 5.92864 -5.71951
LeftLeg  23.7589 -1.00795 7.08926
LeftFoot  -16.474 -0.0192942 0.846764
LeftToes  1.2018e-011 -3.94675e-011 -1.33631e-011
6
root  10.1364 38.5958 -64.584 0.0713888 -1.08548 -0.35584
RightUpLeg  -16.9199 -10.4771 2.0586
RightLeg  24.6276 10.338 -3.72557
RightFoot  -10.3043 0.0341454 -0.184059
RightToes  -5.82073e-011 -3.18055e-015 -2.98177e-016
Spine  14.4592 0.461002 1.61797
Spine1  3.86887 0.865169 -0.680552
HEad  -10.8157 -5.06668 3.67627
LeftShoulder1  -3.88251e-019 9.70628e-020 -3.87848e-018
LeftArm  2.10191 29.6931 -72.5806
LeftForeArm  -8.8224 -54.611 15.9388
LeftHand  -2.57531 -12.0004 17.561
RightShoulder  6.56808 10.048 31.6028
RightArm  22.6308 -28.9371 34.9457
RightForeArm  -29.8587 53.5055 -35.0528
RightHand  -2.81787 6.91077 -25.9644
LeftUpLeg  -10.9083 5.14112 -5.6195
LeftLeg  24.8567 -1.10056 7.34016
LeftFoot  -16.3273 -0.0163281 0.98041
LeftToes  1.2018e-011 -3.94675e-011 -1.33631e-011
7
root  10.1098 38.5596 -64.7422 0.120002 -0.60141 -0.654965
RightUpLeg  -17.0711 -9.45941 2.40216
RightLeg  24.263 8.53147 -4.6055
RightFoot  -9.87577 0.0263938 0.0152455
RightToes  -5.82073e-011 -3.18055e-015 -2.98177e-016
Spine  16.9471 0.666744 2.89946
Spine1  2.29976 1.40224 -1.32751
HEad  -12.0167 -5.86517 3.98933
LeftShoulder1  -3.88251e-019 9.70628e-020 -3.87848e-018
LeftArm  -0.441946 29.0951 -74.8255
LeftForeArm  -6.73258 -51.6582 14.2867
LeftHand  -4.67053 -14.5193 27.4567
RightShoulder  6.25794 9.91753 30.2151
RightArm  20.4457 -28.9853 36.7914
RightForeArm  -29.3362 52.0351 -33.0385
RightHand  -3.71308 8.28704 -30.6516
LeftUpLeg  -11.6542 5.12826 -5.27095
LeftLeg  25.5316 -1.57493 7.27919
LeftFoot  -16.2836 -0.0118917 1.15091
LeftToes  1.2018e-011 -3.94675e-011 -1.33631e-011
8
root  10.0561 38.5809 -64.8051 0.321729 0.105042 -0.800488
RightUpLeg  -17.209 -9.6093 2.60357
RightLeg  23.8692 7.86146 -4.8777
RightFoot  -9.0636 0.00308292 0.594475
RightToes  -5.82073e-011 -3.18055e-015 -2.98177e-016
Spine  19.0868 0.676778 4.06721
Spine1  0.987315 1.8383 -2.56099
HEad  -12.9007 -6.67537 4.58062
LeftShoulder1  -3.88251e-019 9.70628e-020 -3.87848e-018
LeftArm  -2.24595 30.3279 -76.6507
LeftForeArm  -7.31099 -47.0656 11.9482
LeftHand  -6.27432 -15.0877 35.5113
RightShoulder  6.21536 9.89022 30.0399
RightArm  19.6282 -31.6434 35.475
RightForeArm  -29.0488 49.9624 -30.4793
RightHand  -4.22568 8.73368 -33.6572
LeftUpLeg  -12.097 4.8612 -5.05569
LeftLeg  25.5703 -2.01475 7.05925
LeftFoot  -16.0329 -0.00565136 1.4685
LeftToes  1.2018e-011 -3.94675e-011 -1.33631e-011
9
root  9.98773 38.6607 -64.7462 1.21707 1.41006 -0.655057
RightUpLeg  -17.5781 -11.1743 2.67731
RightLeg  23.1828 8.29126 -4.55373
RightFoot  -8.57392 -0.00308691 0.638078
RightToes  -5.82073e-011 -3.18055e-015 -2.98177e-016
Spine  19.921 0.431772 4.45543
Spine1  0.765482 1.70826 -2.87247
HEad  -14.0365 -6.86465 4.98769
LeftShoulder1  -3.88251e-019 9.70628e-020 -3.87848e-018
LeftArm  -3.37692 33.807 -77.2095
LeftForeArm  -10.1802 -42.2716 9.82088
LeftHand  -5.5387 -13.3318 34.1242
RightShoulder  6.40604 9.95989 30.9225
RightArm  20.807 -36.199 30.7817
RightForeArm  -29.0018 47.7204 -28.0024
RightHand  -3.74133 7.68783 -32.1264
LeftUpLeg  -12.6996 3.85173 -5.20999
LeftLeg  24.757 -2.2126 6.74994
LeftFoot  -15.4229 -0.00904626 1.59521
LeftToes  1.2018e-011 -3.94675e-011 -1.33631e-011
10
root  9.90475 38.7937 -64.5878 2.80858 3.01508 -0.540962
RightUpLeg  -18.1172 -13.0142 3.00817
RightLeg  21.787 8.45818 -4.22778
RightFoot  -8.26174 0.00768833 0.321046
RightToes  -5.82073e-011 -3.18055e-015 -2.98177e-016
Spine  19.5909 -0.060527 4.35013
Spine1  1.6109 0.966178 -1.86205
HEad  -15.7602 -6.01151 4.88015
LeftShoulder1  -3.88251e-019 9.70628e-020 -3.87848e-018
LeftArm  -4.38587 39.8342 -76.2255
LeftForeArm  -14.6476 -38.1742 8.16009
LeftHand  -3.20764 -9.73259 24.9129
RightShoulder  6.66898 10.0731 32.0864
RightArm  23.9582 -41.8409 23.6872
RightForeArm  -28.7144 44.8819 -25.2515
RightHand  -2.46522 4.80125 -27.2608
LeftUpLeg  -13.571 2.52409 -5.30266
LeftLeg  23.2255 -2.3493 6.30564
LeftFoot  -14.5942 -0.0203183 1.44805
LeftToes  1.2018e-011 -3.94675e-011 -1.33631e-011
11
root  9.79857 38.9392 -64.389 4.70847 4.18387 -0.641168
RightUpLeg  -18.7827 -13.5248 3.5759
RightLeg  20.0153 7.51293 -4.0026
RightFoot  -7.81524 0.0106133 0.196143
RightToes  -5.82073e-011 -3.18055e-015 -2.98177e-016
Spine  19.0173 -0.587227 4.2682
Spine1  2.85866 0.0945533 -0.550729
HEad  -17.8509 -4.45759 4.37255
LeftShoulder1  -3.88251e-019 9.70628e-020 -3.87848e-018
LeftArm  -4.97881 47.9063 -74.0478
LeftForeArm  -20.6404 -34.7091 6.80398
LeftHand  -1.32136 -4.74524 16.1429
RightShoulder  6.83655 10.1447 32.8169
RightArm  28.3148 -48.28 15.2943
RightForeArm  -27.9051 40.756 -21.8374
RightHand  -1.22634 0.782025 -22.5778
LeftUpLeg  -14.6812 1.46793 -5.06428
LeftLeg  21.6405 -2.41496 5.89683
LeftFoot  -13.8103 -0.0296285 1.21601
LeftToes  1.2018e-011 -3.94675e-011 -1.33631e-011
